<?xml version="1.0" encoding="UTF-8"?><svg id="Layer_1" xmlns="http://www.w3.org/2000/svg" viewBox="0 0 651.88 892.88"><defs><style>.cls-1{fill:#1e3a5f;}</style></defs><path class="cls-1" d="M530.17,313.72c2.82-48.65,55-73.97,97.39-52.88-8.95,46.8-52.57,72.6-97.39,52.88Z"/><path class="cls-1" d="M612.79,66.18c11.11-1.21,26.54-.31,35.91,6.15-7.96,43.58-47.43,73.72-91.3,55.59,1.69-29.85,24.77-58.41,55.39-61.74Z"/><path class="cls-1" d="M651.88,514.76c-38.7,19.7-86.28,7.48-95.64-38.42,34-22.79,86.62-.66,95.64,38.42Z"/><path class="cls-1" d="M541,26.38c-3.48,33.99-36.18,61.34-70.42,51.62-1.52-29.5,16.3-57.38,45.43-65.61,3.31-.93,24.99-5,24.99-1.01-.35,4.85.49,10.24,0,15Z"/><path class="cls-1" d="M550.15,215.74c5.02-35.5,56.59-51.12,84.76-31.2-11.75,36.28-52.08,48-84.76,31.2Z"/><path class="cls-1" d="M435.74.02c4.62-.62,8.67,12.94,9.75,16.86,6.89,25.03-1.39,51.38-25.01,63.71-21.2-22.64-11.57-67.13,15.26-80.57Z"/><path class="cls-1" d="M522.76,184.07c1.35-.37,2.78-.37,3.76.79,11.16,28.69-4.79,63.46-35.85,68.92-16.94-25.51,5.04-62.46,32.08-69.71Z"/><path class="cls-1" d="M431.5,407.88c-3.22-.95.97-13.27,2.02-15.98,9.34-24.23,37.42-37.16,62.45-31.98-2.16,33.51-33.23,52.92-64.46,47.96Z"/><path class="cls-1" d="M436.92,569.81c-28.17-7.9-39.3-51.39-16.28-71.82,26.04,15.03,29.57,46.68,16.28,71.82Z"/><path class="cls-1" d="M371,459.88h-14.5c-20.36-1.68-43.55-27.84-39.06-48.06,26.42-5.82,53.97,21.41,53.56,48.06Z"/><path class="cls-1" d="M482,283.88c1.95,27.66-24.52,54.27-51.56,50.07-2.82-29.44,23.39-51.21,51.56-50.07Z"/><path class="cls-1" d="M515,541.88c-25.98-1.22-45.86-25.59-41.11-51.42,16.84-1.42,33.46,11.31,38.87,27.15.47,1.39,2.24,6.94,2.24,7.76v16.5Z"/><path class="cls-1" d="M396.92,91.8c-37.37.91-53.07-51.31-36.55-49.84,22.59,1.93,43.14,27.11,36.55,49.84Z"/><path class="cls-1" d="M502,124.88c-4.41,26.44-31.01,42.3-56.58,37.03,3.2-27.5,31.04-41.37,56.58-37.03Z"/><path class="cls-1" d="M382.99,402.88c-24.67-4.67-41.26-28.04-35.99-53.01,26.49,3.41,42.53,26.91,35.99,53.01Z"/><path class="cls-1" d="M402,305.89c-24.66.05-42.91-20.41-40.01-45.01,24.21-.73,42.2,21.52,40.01,45.01Z"/><path class="cls-1" d="M572.07,379.8c5.99-21.44,36.18-32.01,54.87-20.3-7.62,22-34.5,31.09-54.87,20.3Z"/><path class="cls-1" d="M568.93,446.8c-18.04,11.13-45.54,10.37-56.85-9.31,10.89-9.39,29.38-11.54,42.3-5.48,2.95,1.38,17.44,10.82,14.55,14.79Z"/><path class="cls-1" d="M376.65,137.23c10.08,9.69,12.84,24.63,4.73,36.6-17.08-5.44-25.52-27.64-17.4-43.53,2.15-1.33,10.96,5.29,12.67,6.93Z"/><path class="cls-1" d="M304,74.88v186.5c-46.68,128.57-77.58,261.22-61.99,400,2.78,54.01,33.92,160.33-36.01,180.5v-459H0v-104h206V76.38l1.5-1.5h96.5Z"/><path class="cls-1" d="M297.99,582.88c51.02-124.87,89.26-26.17,111.86-240.64,2.44-18.22,6.42-42.01,7.14-59.87.35-8.64-2.76-7.84-5.87-14.1-10.58-21.28.26-47.26,20.86-57.38,13.87,21.21,11.94,48.89-8.44,65.04-10.8,63.02-8.53,138.34-23.53,201.96,32.77-22.65,77.72-36.3,107.78-61.71,2.1-6.73,1.33-14.72,4.46-22.54,5.18-12.94,23.19-25.73,37.25-25.78,2.15,0,1.27-.05,1.5,1.51,3.93,27.02-15.57,44.05-39.69,50.33-21.05,15.61-45.84,28.07-68.3,41.7,35.05-4.13,73.37-.4,104.99,15.48-246.53-102.22-326.61,409.31-131.49,351.03,26.95-1.86,48.37,9.73,63.47,31.49,28.74,3.25,66.14,9.36,84.01,33.48-55.57-26.25-117.52-17.04-176.49-17-32.77-1.9-63.92-15.13-97-12.98-41.18,2.67-78.74,34.45-121.51,22.98-1.77-4.79,20.79-2.88,25-7.5-38.33-5.59-78.56-2.23-115.99,7.5,5.42-17.69,24.65-33.99,42.75-37.74,37.15-7.71,52.9,20.63,93.93,2.93,83.12-39.44,38.29-148.57,42.36-218.72-10.62-183.22,33.8-348.38,160.14-483.78,6.42-10.09,8.22-22.96,15.81-31.68-1.77,15.16-10.47,31.92-18.57,44.92-99.19,98.57-153,285.37-116.43,421.08ZM459,860.87c-14.09-10.04-32.26-9.91-48-3.98l1.48,1.99,46.52,1.99ZM150.99,864.89c-19.6-7.41-39.59-4.57-54.99,9.98l54.99-9.98Z"/></svg>